<svg xmlns="http://www.w3.org/2000/svg" viewBox="0 0 17.27 19.54"><defs><style>.cls-1{fill:#1d1d1b;stroke:#1d1d1b;stroke-miterlimit:10;}</style></defs><g id="Layer_2" data-name="Layer 2"><g id="OAC"><path class="cls-1" d="M9.19,18.34A4.87,4.87,0,0,0,12,17.87a6.44,6.44,0,0,0,2-1.6,7.29,7.29,0,0,0,1.28-2.19A10.27,10.27,0,0,0,15.86,9a10,10,0,0,0-.61-2.32,8.87,8.87,0,0,0-2.19-3.05,9.17,9.17,0,0,0-3.51-2l-.38-.13a1.93,1.93,0,0,0-.35-.07l-.37-.08A3.15,3.15,0,0,0,8,1.27L7.66,1.2l-.18,0H1.29V19H.5V.5H4.07C5.3.5,6.5.52,7.66.55A7.94,7.94,0,0,1,9.23.86c.5.16,1,.33,1.54.52a9.11,9.11,0,0,1,1.1.52,8.33,8.33,0,0,1,1,.68,9.91,9.91,0,0,1,2.38,2.56,9.54,9.54,0,0,1,1.28,3.08,11.19,11.19,0,0,1,.23,2.9,9.49,9.49,0,0,1-.6,2.89,8.79,8.79,0,0,1-1.5,2.59,7.81,7.81,0,0,1-2.52,2,3.85,3.85,0,0,1-1.42.37,9.85,9.85,0,0,1-1.53,0Z"/></g></g></svg>