<svg xmlns="http://www.w3.org/2000/svg" viewBox="0 0 14.96 20.26"><defs><style>.cls-1{fill:#1d1d1b;stroke:#1d1d1b;stroke-miterlimit:10;}</style></defs><g id="Layer_2" data-name="Layer 2"><g id="OAC"><path class="cls-1" d="M6.25,19.66a11,11,0,0,1-2-.55,7.48,7.48,0,0,1-1.88-1A5,5,0,0,1,1,16.68a3.05,3.05,0,0,1-.45-1.83,1.16,1.16,0,0,1,.34-.06h.34a4.51,4.51,0,0,0,.8,2,4.59,4.59,0,0,0,1.82,1.45A8.4,8.4,0,0,0,8.54,19a8.6,8.6,0,0,0,2.28-.64,6.16,6.16,0,0,0,1.93-1.31,2.63,2.63,0,0,0,.8-1.36,5.22,5.22,0,0,0,.11-1.53,1.54,1.54,0,0,0-.29-.87c-.19-.29-.38-.55-.56-.8A5.28,5.28,0,0,0,10.7,11,8.37,8.37,0,0,0,8,10.42c-.73-.05-1.42-.11-2.06-.18A7.65,7.65,0,0,1,4,9.77a5.89,5.89,0,0,1-2.09-1.3A4.72,4.72,0,0,1,.68,6.55,3.57,3.57,0,0,1,.55,4.82a4.11,4.11,0,0,1,.68-1.57,4.06,4.06,0,0,1,1-1.08,5.69,5.69,0,0,1,1.29-.8A9.73,9.73,0,0,1,6.07.62,10.3,10.3,0,0,1,8.84.57a8.24,8.24,0,0,1,2.6.72,5.93,5.93,0,0,1,2,1.59,4.5,4.5,0,0,1,.74,1.19,2.59,2.59,0,0,1,.23,1.33h-.73A3.35,3.35,0,0,0,13,3.32a5.07,5.07,0,0,0-1.81-1.4,8.12,8.12,0,0,0-2.45-.7,9.4,9.4,0,0,0-2.65,0A7.73,7.73,0,0,0,3.65,2,4.51,4.51,0,0,0,1.9,3.53a3.14,3.14,0,0,0-.61,2A3.46,3.46,0,0,0,1.9,7.28a5,5,0,0,0,1.5,1.4,7.27,7.27,0,0,0,2.12.89,8.4,8.4,0,0,0,1.39.18c.46,0,.93,0,1.42.08a8.39,8.39,0,0,1,2.47.53,7.05,7.05,0,0,1,2.07,1.21,4.71,4.71,0,0,1,1.31,1.77,3.81,3.81,0,0,1,.21,2.18,4,4,0,0,1-1.07,2,6.45,6.45,0,0,1-2,1.41,9.08,9.08,0,0,1-2.52.74,8.13,8.13,0,0,1-2.56,0"/></g></g></svg>