<svg xmlns="http://www.w3.org/2000/svg" viewBox="0 0 23.05 19.78"><defs><style>.cls-1{fill:#1d1d1b;stroke:#1d1d1b;stroke-miterlimit:10;}</style></defs><g id="Layer_2" data-name="Layer 2"><g id="OAC"><path class="cls-1" d="M9.21,19.09a10,10,0,0,1-2.38-.66,12.41,12.41,0,0,1-2.16-1.16,10.32,10.32,0,0,1-1.81-1.53,7.92,7.92,0,0,1-1.3-1.82,8.67,8.67,0,0,1-1-3.63A7.83,7.83,0,0,1,1,7,9,9,0,0,1,2.82,4.21,11.19,11.19,0,0,1,5.55,2.07,12.76,12.76,0,0,1,12.64.54a11.72,11.72,0,0,1,7.18,3.21,7.79,7.79,0,0,1,1.67,2.18,10.22,10.22,0,0,1,.89,2.5,7.87,7.87,0,0,1,0,3.17,8.11,8.11,0,0,1-1.16,2.8,9.4,9.4,0,0,1-2.12,2.3,11.26,11.26,0,0,1-2.84,1.64,13.54,13.54,0,0,1-3.37.85,13.11,13.11,0,0,1-3.69-.1m.55-.57a12,12,0,0,0,2.88.07,12.65,12.65,0,0,0,2.77-.6,10.62,10.62,0,0,0,2.46-1.21A8.69,8.69,0,0,0,19.82,15a7.84,7.84,0,0,0,1.87-5.84,7.55,7.55,0,0,0-.85-2.82A9.16,9.16,0,0,0,19,3.92a10.15,10.15,0,0,0-2.79-1.8,11.55,11.55,0,0,0-3.57-.89,11.64,11.64,0,0,0-3.17.11,10.45,10.45,0,0,0-2.95,1A10.4,10.4,0,0,0,4.55,3.55,10.85,10.85,0,0,0,2.93,5.18,8.34,8.34,0,0,0,1.79,7.07a5.24,5.24,0,0,0-.47,2,9.35,9.35,0,0,0,.32,3.08A7,7,0,0,0,3.21,15a9.2,9.2,0,0,0,2.85,2.3,11.58,11.58,0,0,0,3.7,1.21"/></g></g></svg>